<?xml version="1.0" encoding="UTF-8"?>
<svg width="256px" height="256px" viewBox="0 0 256 256" version="1.1" xmlns="http://www.w3.org/2000/svg" xmlns:xlink="http://www.w3.org/1999/xlink">
    <!-- Generator: Sketch 48.2 (47327) - http://www.bohemiancoding.com/sketch -->
    <title>1</title>
    <desc>Created with Sketch.</desc>
    <defs></defs>
    <g id="Page-1" stroke="none" stroke-width="1" fill="none" fill-rule="evenodd">
        <g id="1" transform="translate(6.000000, 67.000000)" fill-rule="nonzero">
            <path d="M85.9766944,27.530894 C85.9766944,23.5936416 83.8454481,22.3210547 80.4699481,22.3210547 C77.3716334,22.3210547 75.3081434,23.9879643 74.0700495,25.4577125 L74.0700495,46.2851206 L63.4692549,46.2851206 L63.4692549,1.76250298 L74.0700495,1.76250298 L74.0700495,17.983505 C76.065783,15.7131621 79.9894937,13.245658 85.5639964,13.245658 C93.1342327,13.245658 96.577489,17.3860463 96.577489,23.3247852 L96.577489,46.2910952 L85.9766944,46.2910952 L85.9766944,27.530894 Z M121.468721,46.2851206 L132.069516,46.2851206 L132.069516,14.0462525 L121.468721,14.0462525 L121.468721,34.8736606 C120.230627,36.4091293 118.167138,38.0103185 115.136579,38.0103185 C111.693323,38.0103185 109.629833,36.6720111 109.629833,32.8004792 L109.629833,14.040278 L99.0290383,14.040278 L99.0290383,37.006588 C99.0290383,42.9453268 102.404538,47.0857152 109.974774,47.0857152 C115.549277,47.0857152 119.405232,44.6839314 121.468721,42.4135886 L121.468721,46.2851206 Z M219.130313,13.2396834 C213.900752,13.2396834 209.564343,16.1791799 207.636366,18.9812609 C206.262759,15.1754494 202.955015,13.2396834 198.205909,13.2396834 C193.204255,13.2396834 189.089595,15.8625268 187.475761,17.7265978 C187.408005,17.5832077 187.334089,17.4398176 187.260172,17.3024021 L187.260172,17.1829104 L187.192416,17.1829104 C185.584742,14.356931 182.535704,13.0006999 178.482641,13.0006999 C177.213748,13.0006999 175.994133,13.1739629 174.854594,13.4786668 C170.770732,14.2195156 167.481467,16.639223 165.873793,18.9812609 C164.500186,15.1754494 161.192443,13.2396834 156.443336,13.2396834 C151.213775,13.2396834 146.945123,16.1074848 145.4976,17.9775304 L145.4976,14.040278 L134.896805,14.040278 L134.896805,46.2851206 L145.4976,46.2851206 L145.4976,25.4577125 C146.600181,24.1253797 148.595915,22.3210547 151.417044,22.3210547 C154.650872,22.3210547 155.821209,24.1911002 155.821209,26.6586044 L155.821209,46.2851206 L166.422004,46.2851206 L166.422004,25.4577125 C167.456829,24.1253797 169.520319,22.3210547 172.409205,22.3210547 C174.953149,22.3210547 176.24668,23.5279211 176.659378,25.2784749 L176.659378,46.2851206 L176.81337,46.2851206 L187.260172,46.2851206 L187.346408,46.2851206 L187.346408,25.3621191 C188.461308,24.035761 190.426244,22.3210547 193.179617,22.3210547 C196.413444,22.3210547 197.583782,24.1911002 197.583782,26.6586044 L197.583782,46.2851206 L208.184576,46.2851206 L208.184576,25.4577125 C209.219401,24.1253797 211.282891,22.3210547 214.171777,22.3210547 C217.337848,22.3210547 218.575942,24.1911002 218.575942,26.6586044 L218.575942,46.2851206 L229.10898,46.2851206 L229.10898,22.9244879 C229.10898,16.3106208 225.253026,13.2396834 219.130313,13.2396834 Z M243.436376,19.8774488 C243.436376,21.406943 242.820409,22.8468183 241.705509,23.934193 C240.590608,25.0155931 239.106127,25.6130518 237.523092,25.6130518 C235.946216,25.6130518 234.461735,25.0155931 233.340675,23.934193 C232.225774,22.8527929 231.609807,21.4129175 231.609807,19.8774488 C231.609807,18.3479547 232.225774,16.9080794 233.340675,15.8207047 C234.455575,14.7393046 235.940056,14.1418459 237.516932,14.1418459 L237.523092,14.1418459 C239.099968,14.1418459 240.584448,14.7393046 241.699349,15.8207047 C242.820409,16.9080794 243.436376,18.3479547 243.436376,19.8774488 Z M241.945736,19.8774488 C241.945736,17.5115126 239.962322,15.5936704 237.529251,15.5936704 C235.090021,15.5936704 233.112767,17.5174872 233.112767,19.8774488 C233.112767,22.243385 235.096181,24.1612273 237.529251,24.1612273 C239.962322,24.1672019 241.945736,22.243385 241.945736,19.8774488 Z M240.325742,18.3539293 L240.325742,21.4427905 C240.325742,22.8229199 239.173884,23.1634713 238.30537,23.1634713 C237.707882,23.1634713 237.208948,23.0141067 236.759292,22.6556315 L237.245906,21.8849099 C237.510772,22.1657154 237.904991,22.2792326 238.31153,22.2792326 C238.68111,22.2792326 239.223161,22.0880458 239.223161,21.4547396 L239.223161,21.1978324 C238.933656,21.5264347 238.588715,21.6877485 238.188336,21.6877485 C237.338302,21.6877485 236.648418,21.1201628 236.648418,19.9790168 C236.648418,19.6862621 236.679217,19.4293549 236.740813,19.2142698 L236.180283,19.2142698 L236.180283,21.6638502 L235.065383,21.6638502 L235.065383,19.2142698 L234.486374,19.2142698 L234.486374,18.2762597 L235.065383,18.2762597 L235.065383,18.1089713 C235.065383,17.3860463 235.595115,16.914054 236.315796,16.914054 C236.61762,16.914054 236.882486,16.9797745 237.054957,17.0693933 L236.851687,17.8042674 C236.765452,17.7564707 236.660738,17.7325723 236.562183,17.7325723 C236.328115,17.7325723 236.180283,17.8699878 236.180283,18.1328696 L236.180283,18.2702851 L237.92347,18.2523614 C238.11442,18.2463868 239.087648,18.1926155 239.223161,18.7602012 L239.223161,18.3599039 L240.325742,18.3599039 L240.325742,18.3539293 Z M239.223161,19.5249482 C239.087648,19.3397361 238.791984,19.2262189 238.557916,19.2262189 C238.11442,19.2262189 237.794117,19.4831261 237.794117,19.9790168 C237.794117,20.4749075 238.12058,20.7377893 238.557916,20.7377893 C238.791984,20.7377893 239.087648,20.6182976 239.223161,20.4330854 L239.223161,19.5249482 Z M50.7618526,30.5480601 L50.7618526,46.2851206 L27.3119833,46.2851206 L27.3119833,46.279146 C27.1764705,46.279146 27.0409578,46.2851206 26.905445,46.2851206 C13.7299077,46.2851206 3.04287771,35.9251878 3.04287771,23.139573 C3.04287771,21.1560103 3.30158391,19.2262189 3.78819796,17.3920209 C4.22553463,14.8707455 2.137406,10.8140013 0,8.1493358 C3.4555757,8.53768392 8.5065063,8.27480212 10.0587435,6.75128259 C14.3766732,2.58102131 20.3269159,0 26.8992853,0 C33.1821502,0 38.8921657,2.35996161 43.1484987,6.20759524 L43.4995999,6.73933342 L27.4598154,22.3031309 C27.1025545,22.6496569 27.1025545,23.2172426 27.4598154,23.5637686 C27.6384459,23.7370316 27.8725134,23.8266504 28.1127406,23.8266504 C28.3529678,23.8266504 28.5870353,23.7370316 28.7656658,23.5637686 L51.7166017,1.30245983 C59.3361153,9.70870285 59.0219721,22.5122414 50.7618526,30.5480601 Z M16.9390966,14.183668 C18.7931577,14.183668 20.2961175,12.725869 20.2961175,10.9275185 C20.2961175,9.12916797 18.7931577,7.6713689 16.9390966,7.6713689 C16.3108101,7.6713689 15.7318009,7.83865731 15.2267079,8.13141205 C15.2513466,8.13141205 15.2698256,8.12543746 15.2944643,8.12543746 C16.2984907,8.12543746 17.117727,8.91408286 17.117727,9.89391502 C17.117727,10.8737472 16.3046504,11.6623926 15.2944643,11.6623926 C14.530665,11.6623926 13.8838995,11.208324 13.612874,10.5570941 C13.612874,10.5809925 13.6067143,10.6048908 13.6067143,10.6347637 C13.6005546,10.7184079 13.5943949,10.7960776 13.5882353,10.8797218 C13.5943949,11.3517141 13.6929497,11.8057827 13.8592608,12.2240037 C14.3643539,13.3711243 15.5531705,14.183668 16.9390966,14.183668 Z" id="Shape" fill="#FF6C00"></path>
            <g id="oxipay-logo" transform="translate(9.100233, 60.000000)" fill="#FA8B23">
                <path d="M120.319795,10.8571429 C109.784025,10.8571429 101.240093,19.4251802 101.240093,29.990674 C101.240093,30.0432387 101.240093,30.0432387 101.240093,30.0958033 L101.240093,60.1102162 C101.240093,60.1627808 101.240093,60.1627808 101.240093,60.2153455 C101.240093,62.2653667 102.91743,63.9474354 104.961683,63.9474354 C105.0141,63.9474354 105.066517,63.9474354 105.066517,63.9474354 L105.066517,64 L107.897022,64 C108.316356,64 108.630857,63.6320475 108.630857,63.264095 C108.630857,63.264095 108.630857,63.264095 108.630857,63.2115303 L108.630857,45.1818567 C111.880696,47.6523951 115.916787,49.1242052 120.267378,49.1242052 C130.803147,49.1242052 139.347079,40.5561679 139.347079,29.990674 C139.399496,19.4251802 130.855564,10.8571429 120.319795,10.8571429 M120.319795,42.4484951 C113.453199,42.4484951 107.897022,36.8766426 107.897022,29.990674 C107.897022,23.1047054 113.453199,17.5328529 120.319795,17.5328529 C127.186391,17.5328529 132.742567,23.1047054 132.742567,29.990674 C132.742567,36.8766426 127.186391,42.4484951 120.319795,42.4484951" id="Shape"></path>
                <path d="M183.657902,30.750191 C183.657902,30.6432391 183.657902,30.4828113 183.657902,30.3223835 C183.657902,19.5737204 175.010184,10.8571429 164.346434,10.8571429 C153.682683,10.8571429 145.034965,19.5737204 145.034965,30.3223835 C145.034965,41.0710466 153.682683,49.7876241 164.346434,49.7876241 C168.802926,49.7876241 172.888045,48.2902979 176.124307,45.723453 L176.124307,47.0068755 C176.124307,47.0603514 176.124307,47.0603514 176.124307,47.0603514 C176.124307,49.1459129 177.822019,50.8571429 179.891105,50.8571429 L182.8621,50.8571429 L182.915153,50.8571429 L182.968207,50.8571429 C183.392635,50.8036669 183.710956,50.4828113 183.710956,50.1084798 L183.710956,50.0550038 L183.710956,45.2421696 L183.657902,30.750191 Z M164.346434,42.9427044 C157.396427,42.9427044 151.772758,37.2742552 151.772758,30.2689076 C151.772758,23.26356 157.396427,17.5951108 164.346434,17.5951108 C171.29644,17.5951108 176.92011,23.26356 176.92011,30.2689076 C176.867056,37.2742552 171.243387,42.9427044 164.346434,42.9427044 Z" id="Shape"></path>
                <path d="M225.038868,14.1081824 C224.986054,14.0552138 224.986054,14.0552138 224.986054,14.0552138 C224.986054,14.0552138 224.986054,14.0552138 224.93324,14.0552138 L222.873497,11.9894397 C222.873497,11.9894397 222.873497,11.9894397 222.820683,11.9364711 C221.394707,10.5063198 219.01808,10.5063198 217.53929,11.8835026 L217.486477,11.9364711 L204.705506,24.8078331 L191.871722,11.9364711 C190.445746,10.5063198 188.06912,10.5063198 186.59033,11.9894397 C186.59033,11.9894397 186.59033,11.9894397 186.59033,12.0424083 L184.530586,14.1081824 L184.477773,14.161151 C184.213703,14.4259938 184.213703,14.9027109 184.477773,15.2205223 C184.530586,15.2734909 184.530586,15.2734909 184.530586,15.2734909 L186.537516,17.2862965 L200.85009,31.6407784 L200.85009,46.4719774 C200.85009,46.524946 200.85009,46.524946 200.85009,46.524946 C200.85009,46.5779145 200.85009,46.5779145 200.85009,46.5779145 C200.902904,48.6436887 202.540135,50.2857143 204.599878,50.2857143 L207.610272,50.2857143 C208.032784,50.2857143 208.349667,49.9149343 208.349667,49.5441543 L208.349667,44.7240147 L208.349667,31.7996841 L209.986899,30.1576585 L221.605963,18.5575421 L224.93324,15.2205223 L224.986054,15.1675538 C225.302938,14.8497424 225.302938,14.4259938 225.038868,14.1081824" id="Shape"></path>
                <path d="M6.74704782,30.2857143 C6.74704782,23.2935636 12.3784421,17.6357928 19.3379953,17.6357928 C26.2975486,17.6357928 31.9289429,23.2935636 31.9289429,30.2857143 C31.9289429,37.277865 26.2975486,42.9356358 19.3379953,42.9356358 C12.3784421,42.8822606 6.74704782,37.2244898 6.74704782,30.2857143 M0,30.2857143 C0,41.0141287 8.65959681,49.7142857 19.3379953,49.7142857 C30.0163939,49.7142857 38.6759907,41.0141287 38.6759907,30.2857143 C38.6759907,19.5572998 30.0163939,10.8571429 19.3379953,10.8571429 C8.65959681,10.8571429 0,19.5572998 0,30.2857143" id="Shape"></path>
                <path d="M43.2642941,11.9639362 C43.21142,12.0166407 43.1585458,12.0693451 43.1585458,12.1220496 L41.2022013,14.0721141 L41.1493271,14.1248186 C40.8849562,14.3883408 40.8849562,14.8626808 41.1493271,15.1789075 C41.2022013,15.2316119 41.2022013,15.2316119 41.2022013,15.2316119 L44.5332743,18.5519921 L74.4071835,48.3300045 L74.4600577,48.2773 C75.9405346,49.4895023 78.1083758,49.4367978 79.5359785,48.0664822 C79.5359785,48.0664822 79.5888527,48.0137778 79.5888527,48.0137778 L81.6509456,45.9583044 L81.7038197,45.9055999 C81.9681906,45.6420777 81.9681906,45.1677377 81.7038197,44.851511 C81.6509456,44.7988065 81.6509456,44.7988065 81.6509456,44.7988065 L78.3198725,41.4784264 L48.5517117,11.9112318 C47.8114732,11.1733695 46.8597381,10.8571429 45.9080029,10.8571429 C44.9562677,10.8571429 44.0045326,11.226074 43.2642941,11.9639362" id="Shape"></path>
                <path d="M75.4937173,10.5454545 C75.4415619,10.5974026 75.4415619,10.5974026 75.4415619,10.5974026 L73.4596534,12.5714286 C73.4074979,12.6233766 73.4074979,12.6233766 73.4074979,12.6233766 L73.3553424,12.6753247 L63.1328671,22.8051948 L68.3484157,28 L78.5187355,17.8701299 L78.570891,17.8181818 C79.9790892,16.4155844 79.9790892,14.0779221 78.570891,12.6233766 C78.570891,12.6233766 78.570891,12.6233766 78.5187355,12.5714286 L76.4846716,10.5454545 L76.4325161,10.4935065 C76.2760496,10.3376623 76.0674277,10.2857143 75.9109612,10.2857143 C75.8066503,10.3376623 75.6501838,10.3896104 75.4937173,10.5454545" id="Shape"></path>
                <path d="M44.0824301,41.7809742 C42.8831603,43.2455051 42.9353025,45.3899967 44.2909987,46.8022229 L46.3766852,48.8944099 C46.3766852,48.8944099 46.3766852,48.9467146 46.4288274,48.9467146 C46.6895382,49.208238 47.1588177,49.208238 47.4716706,48.9467146 C47.5238128,48.8944099 47.5238128,48.8944099 47.5238128,48.8944099 L50.8087691,45.5992154 L59.1515152,37.2304675 L53.9372989,32 L44.0824301,41.7809742 Z" id="Shape"></path>
                <path d="M87.020979,3.71428571 C87.020979,5.75452716 88.6872189,7.42857143 90.7179487,7.42857143 C92.7486786,7.42857143 94.4149184,5.75452716 94.4149184,3.71428571 C94.4149184,1.67404427 92.7486786,0 90.7179487,0 C88.6872189,2.97369998e-14 87.020979,1.67404427 87.020979,3.71428571" id="Shape"></path>
                <path d="M90.8917379,10.8571429 L87.7951308,10.8571429 C87.3527584,10.8571429 87.020979,11.2307692 87.020979,11.6043956 L87.020979,14.5400314 C87.020979,14.5400314 87.020979,14.5400314 87.020979,14.5934066 L87.020979,45.8178964 C87.020979,45.8712716 87.020979,45.8712716 87.020979,45.9246468 C87.020979,48.0062794 88.7904688,49.7142857 90.9470344,49.7142857 L94.0989381,49.7142857 C94.0989381,49.7142857 94.0989381,49.7142857 94.1542347,49.7142857 L94.2095312,49.7142857 C94.5966071,49.6609105 94.983683,49.3406593 94.983683,48.967033 C94.983683,48.9136578 94.983683,48.9136578 94.983683,48.9136578 L94.983683,14.5934066 C94.8177933,12.5117739 93.1036001,10.8571429 90.8917379,10.8571429" id="Shape"></path>
            </g>
        </g>
    </g>
</svg>